<mxfile host="65bd71144e">
    <diagram id="iVscjCF53jSntFp0XOt4" name="Page-1">
        <mxGraphModel dx="990" dy="815" grid="1" gridSize="10" guides="1" tooltips="1" connect="1" arrows="1" fold="1" page="1" pageScale="1" pageWidth="827" pageHeight="1169" math="0" shadow="0">
            <root>
                <mxCell id="0"/>
                <mxCell id="1" parent="0"/>
                <mxCell id="30" value="" style="group" parent="1" vertex="1" connectable="0">
                    <mxGeometry x="80" y="270" width="320" height="190" as="geometry"/>
                </mxCell>
                <mxCell id="10" value="控制质量&lt;span style=&quot;color: rgba(0 , 0 , 0 , 0) ; font-family: monospace ; font-size: 0px&quot;&gt;%3CmxGraphModel%3E%3Croot%3E%3CmxCell%20id%3D%220%22%2F%3E%3CmxCell%20id%3D%221%22%20parent%3D%220%22%2F%3E%3CmxCell%20id%3D%222%22%20value%3D%22%E6%8C%87%E5%AF%BC%E5%92%8C%E7%AE%A1%E7%90%86%E9%A1%B9%E7%9B%AE%E5%B7%A5%E4%BD%9C%22%20style%3D%22rounded%3D1%3BwhiteSpace%3Dwrap%3Bhtml%3D1%3B%22%20vertex%3D%221%22%20parent%3D%221%22%3E%3CmxGeometry%20x%3D%2280%22%20y%3D%2290%22%20width%3D%22120%22%20height%3D%2260%22%20as%3D%22geometry%22%2F%3E%3C%2FmxCell%3E%3C%2Froot%3E%3C%2FmxGraphModel%3E&lt;/span&gt;" style="rounded=1;whiteSpace=wrap;html=1;" parent="30" vertex="1">
                    <mxGeometry x="100" y="130" width="120" height="60" as="geometry"/>
                </mxCell>
                <mxCell id="11" value="监控项目工作" style="rounded=1;whiteSpace=wrap;html=1;" parent="30" vertex="1">
                    <mxGeometry x="200" width="120" height="60" as="geometry"/>
                </mxCell>
                <mxCell id="13" style="edgeStyle=none;html=1;exitX=1;exitY=0.5;exitDx=0;exitDy=0;entryX=0.5;entryY=1;entryDx=0;entryDy=0;" parent="30" source="10" target="11" edge="1">
                    <mxGeometry relative="1" as="geometry"/>
                </mxCell>
                <mxCell id="16" value="确认的变更" style="edgeLabel;html=1;align=center;verticalAlign=middle;resizable=0;points=[];" parent="13" vertex="1" connectable="0">
                    <mxGeometry x="0.0069" y="-1" relative="1" as="geometry">
                        <mxPoint as="offset"/>
                    </mxGeometry>
                </mxCell>
                <mxCell id="15" style="edgeStyle=none;html=1;exitX=0.5;exitY=1;exitDx=0;exitDy=0;entryX=0;entryY=0.5;entryDx=0;entryDy=0;" parent="30" source="12" target="10" edge="1">
                    <mxGeometry relative="1" as="geometry"/>
                </mxCell>
                <mxCell id="18" value="批准的变更" style="edgeLabel;html=1;align=center;verticalAlign=middle;resizable=0;points=[];" parent="15" vertex="1" connectable="0">
                    <mxGeometry x="-0.1414" relative="1" as="geometry">
                        <mxPoint as="offset"/>
                    </mxGeometry>
                </mxCell>
                <mxCell id="12" value="实施整体变更控制" style="rounded=1;whiteSpace=wrap;html=1;" parent="30" vertex="1">
                    <mxGeometry width="120" height="60" as="geometry"/>
                </mxCell>
                <mxCell id="14" style="edgeStyle=none;html=1;exitX=0;exitY=0.5;exitDx=0;exitDy=0;entryX=1;entryY=0.5;entryDx=0;entryDy=0;" parent="30" source="11" target="12" edge="1">
                    <mxGeometry relative="1" as="geometry"/>
                </mxCell>
                <mxCell id="17" value="变更请求" style="edgeLabel;html=1;align=center;verticalAlign=middle;resizable=0;points=[];" parent="14" vertex="1" connectable="0">
                    <mxGeometry x="0.025" y="1" relative="1" as="geometry">
                        <mxPoint as="offset"/>
                    </mxGeometry>
                </mxCell>
                <mxCell id="31" value="" style="group" parent="1" vertex="1" connectable="0">
                    <mxGeometry x="80" y="90" width="770" height="60" as="geometry"/>
                </mxCell>
                <mxCell id="2" value="指导和管理项目工作" style="rounded=1;whiteSpace=wrap;html=1;" parent="31" vertex="1">
                    <mxGeometry width="120" height="60" as="geometry"/>
                </mxCell>
                <mxCell id="3" value="控制质量&lt;span style=&quot;color: rgba(0 , 0 , 0 , 0) ; font-family: monospace ; font-size: 0px&quot;&gt;%3CmxGraphModel%3E%3Croot%3E%3CmxCell%20id%3D%220%22%2F%3E%3CmxCell%20id%3D%221%22%20parent%3D%220%22%2F%3E%3CmxCell%20id%3D%222%22%20value%3D%22%E6%8C%87%E5%AF%BC%E5%92%8C%E7%AE%A1%E7%90%86%E9%A1%B9%E7%9B%AE%E5%B7%A5%E4%BD%9C%22%20style%3D%22rounded%3D1%3BwhiteSpace%3Dwrap%3Bhtml%3D1%3B%22%20vertex%3D%221%22%20parent%3D%221%22%3E%3CmxGeometry%20x%3D%2280%22%20y%3D%2290%22%20width%3D%22120%22%20height%3D%2260%22%20as%3D%22geometry%22%2F%3E%3C%2FmxCell%3E%3C%2Froot%3E%3C%2FmxGraphModel%3E&lt;/span&gt;" style="rounded=1;whiteSpace=wrap;html=1;" parent="31" vertex="1">
                    <mxGeometry x="214" width="120" height="60" as="geometry"/>
                </mxCell>
                <mxCell id="6" style="edgeStyle=none;html=1;exitX=1;exitY=0.5;exitDx=0;exitDy=0;entryX=0;entryY=0.5;entryDx=0;entryDy=0;" parent="31" source="2" target="3" edge="1">
                    <mxGeometry relative="1" as="geometry"/>
                </mxCell>
                <mxCell id="7" value="可交付成果" style="edgeLabel;html=1;align=center;verticalAlign=middle;resizable=0;points=[];" parent="6" vertex="1" connectable="0">
                    <mxGeometry x="-0.2128" y="-1" relative="1" as="geometry">
                        <mxPoint as="offset"/>
                    </mxGeometry>
                </mxCell>
                <mxCell id="4" value="确认范围" style="rounded=1;whiteSpace=wrap;html=1;" parent="31" vertex="1">
                    <mxGeometry x="430" width="120" height="60" as="geometry"/>
                </mxCell>
                <mxCell id="8" value="核实的可交付成果" style="edgeStyle=none;html=1;exitX=1;exitY=0.5;exitDx=0;exitDy=0;entryX=0;entryY=0.5;entryDx=0;entryDy=0;" parent="31" source="3" target="4" edge="1">
                    <mxGeometry relative="1" as="geometry"/>
                </mxCell>
                <mxCell id="5" value="结束项目或阶段" style="rounded=1;whiteSpace=wrap;html=1;" parent="31" vertex="1">
                    <mxGeometry x="650" width="120" height="60" as="geometry"/>
                </mxCell>
                <mxCell id="9" value="验收的可交付成果" style="edgeStyle=none;html=1;exitX=1;exitY=0.5;exitDx=0;exitDy=0;entryX=0;entryY=0.5;entryDx=0;entryDy=0;" parent="31" source="4" target="5" edge="1">
                    <mxGeometry relative="1" as="geometry"/>
                </mxCell>
                <mxCell id="42" value="" style="group" vertex="1" connectable="0" parent="1">
                    <mxGeometry x="610" y="220" width="390" height="260" as="geometry"/>
                </mxCell>
                <mxCell id="32" value="实施整体变更控制" style="rounded=1;whiteSpace=wrap;html=1;" vertex="1" parent="42">
                    <mxGeometry y="100" width="120" height="60" as="geometry"/>
                </mxCell>
                <mxCell id="33" value="指导和管理项目工作" style="rounded=1;whiteSpace=wrap;html=1;" vertex="1" parent="42">
                    <mxGeometry x="270" width="120" height="60" as="geometry"/>
                </mxCell>
                <mxCell id="36" style="edgeStyle=orthogonalEdgeStyle;html=1;exitX=1;exitY=0.5;exitDx=0;exitDy=0;entryX=0;entryY=0.5;entryDx=0;entryDy=0;" edge="1" parent="42" source="32" target="33">
                    <mxGeometry relative="1" as="geometry">
                        <Array as="points">
                            <mxPoint x="230" y="130"/>
                            <mxPoint x="230" y="30"/>
                        </Array>
                    </mxGeometry>
                </mxCell>
                <mxCell id="34" value="控制质量" style="rounded=1;whiteSpace=wrap;html=1;" vertex="1" parent="42">
                    <mxGeometry x="270" y="100" width="120" height="60" as="geometry"/>
                </mxCell>
                <mxCell id="37" style="edgeStyle=orthogonalEdgeStyle;html=1;exitX=1;exitY=0.5;exitDx=0;exitDy=0;entryX=0;entryY=0.5;entryDx=0;entryDy=0;" edge="1" parent="42" source="32" target="34">
                    <mxGeometry relative="1" as="geometry"/>
                </mxCell>
                <mxCell id="35" value="控制采购" style="rounded=1;whiteSpace=wrap;html=1;" vertex="1" parent="42">
                    <mxGeometry x="270" y="200" width="120" height="60" as="geometry"/>
                </mxCell>
                <mxCell id="39" style="edgeStyle=orthogonalEdgeStyle;html=1;exitX=1;exitY=0.5;exitDx=0;exitDy=0;entryX=0;entryY=0.5;entryDx=0;entryDy=0;" edge="1" parent="42" source="32" target="35">
                    <mxGeometry relative="1" as="geometry">
                        <Array as="points">
                            <mxPoint x="230" y="130"/>
                            <mxPoint x="230" y="230"/>
                        </Array>
                    </mxGeometry>
                </mxCell>
                <mxCell id="41" value="批准的变更请求" style="edgeLabel;html=1;align=center;verticalAlign=middle;resizable=0;points=[];" vertex="1" connectable="0" parent="39">
                    <mxGeometry x="-0.3692" y="1" relative="1" as="geometry">
                        <mxPoint as="offset"/>
                    </mxGeometry>
                </mxCell>
                <mxCell id="76" style="edgeStyle=orthogonalEdgeStyle;html=1;exitX=1;exitY=0.5;exitDx=0;exitDy=0;entryX=0;entryY=0.5;entryDx=0;entryDy=0;" edge="1" parent="1" source="43" target="44">
                    <mxGeometry relative="1" as="geometry"/>
                </mxCell>
                <mxCell id="77" style="edgeStyle=orthogonalEdgeStyle;html=1;exitX=1;exitY=0.5;exitDx=0;exitDy=0;entryX=0;entryY=0.5;entryDx=0;entryDy=0;" edge="1" parent="1" source="43" target="53">
                    <mxGeometry relative="1" as="geometry"/>
                </mxCell>
                <mxCell id="43" value="合同" style="rounded=1;whiteSpace=wrap;html=1;fillColor=#a0522d;strokeColor=#6D1F00;fontColor=#ffffff;sketch=1;" vertex="1" parent="1">
                    <mxGeometry x="800" y="880" width="120" height="60" as="geometry"/>
                </mxCell>
                <mxCell id="51" value="" style="group" vertex="1" connectable="0" parent="1">
                    <mxGeometry x="970" y="570" width="290" height="240" as="geometry"/>
                </mxCell>
                <mxCell id="44" value="按范围" style="rounded=1;whiteSpace=wrap;html=1;" vertex="1" parent="51">
                    <mxGeometry y="90" width="120" height="60" as="geometry"/>
                </mxCell>
                <mxCell id="45" value="总承包合同" style="rounded=1;whiteSpace=wrap;html=1;" vertex="1" parent="51">
                    <mxGeometry x="170" width="120" height="60" as="geometry"/>
                </mxCell>
                <mxCell id="48" style="edgeStyle=orthogonalEdgeStyle;html=1;exitX=1;exitY=0.5;exitDx=0;exitDy=0;entryX=0;entryY=0.5;entryDx=0;entryDy=0;" edge="1" parent="51" source="44" target="45">
                    <mxGeometry relative="1" as="geometry"/>
                </mxCell>
                <mxCell id="46" value="单项工程承包合同" style="rounded=1;whiteSpace=wrap;html=1;" vertex="1" parent="51">
                    <mxGeometry x="170" y="90" width="120" height="60" as="geometry"/>
                </mxCell>
                <mxCell id="49" style="edgeStyle=orthogonalEdgeStyle;html=1;exitX=1;exitY=0.5;exitDx=0;exitDy=0;entryX=0;entryY=0.5;entryDx=0;entryDy=0;" edge="1" parent="51" source="44" target="46">
                    <mxGeometry relative="1" as="geometry"/>
                </mxCell>
                <mxCell id="47" value="分包合同" style="rounded=1;whiteSpace=wrap;html=1;" vertex="1" parent="51">
                    <mxGeometry x="170" y="180" width="120" height="60" as="geometry"/>
                </mxCell>
                <mxCell id="50" style="edgeStyle=orthogonalEdgeStyle;html=1;exitX=1;exitY=0.5;exitDx=0;exitDy=0;entryX=0;entryY=0.5;entryDx=0;entryDy=0;" edge="1" parent="51" source="44" target="47">
                    <mxGeometry relative="1" as="geometry"/>
                </mxCell>
                <mxCell id="75" value="" style="group" vertex="1" connectable="0" parent="1">
                    <mxGeometry x="970" y="820" width="470" height="510" as="geometry"/>
                </mxCell>
                <mxCell id="53" value="按付款" style="rounded=1;whiteSpace=wrap;html=1;" vertex="1" parent="75">
                    <mxGeometry y="270" width="120" height="60" as="geometry"/>
                </mxCell>
                <mxCell id="54" value="总价" style="rounded=1;whiteSpace=wrap;html=1;" vertex="1" parent="75">
                    <mxGeometry x="170" y="50" width="120" height="60" as="geometry"/>
                </mxCell>
                <mxCell id="55" style="edgeStyle=orthogonalEdgeStyle;html=1;exitX=1;exitY=0.5;exitDx=0;exitDy=0;entryX=0;entryY=0.5;entryDx=0;entryDy=0;" edge="1" parent="75" source="53" target="54">
                    <mxGeometry y="30" as="geometry"/>
                </mxCell>
                <mxCell id="56" value="成本补偿" style="rounded=1;whiteSpace=wrap;html=1;" vertex="1" parent="75">
                    <mxGeometry x="170" y="270" width="120" height="60" as="geometry"/>
                </mxCell>
                <mxCell id="57" style="edgeStyle=orthogonalEdgeStyle;html=1;exitX=1;exitY=0.5;exitDx=0;exitDy=0;entryX=0;entryY=0.5;entryDx=0;entryDy=0;" edge="1" parent="75" source="53" target="56">
                    <mxGeometry y="30" as="geometry"/>
                </mxCell>
                <mxCell id="60" value="固定总价合同&lt;br&gt;(FFP)" style="rounded=1;whiteSpace=wrap;html=1;" vertex="1" parent="75">
                    <mxGeometry x="350" width="120" height="60" as="geometry"/>
                </mxCell>
                <mxCell id="65" style="edgeStyle=orthogonalEdgeStyle;html=1;exitX=1;exitY=0.5;exitDx=0;exitDy=0;entryX=0;entryY=0.5;entryDx=0;entryDy=0;" edge="1" parent="75" source="54" target="60">
                    <mxGeometry as="geometry"/>
                </mxCell>
                <mxCell id="61" value="总价+激励费用合同(FPIF)" style="rounded=1;whiteSpace=wrap;html=1;" vertex="1" parent="75">
                    <mxGeometry x="350" y="90" width="120" height="60" as="geometry"/>
                </mxCell>
                <mxCell id="66" style="edgeStyle=orthogonalEdgeStyle;html=1;exitX=1;exitY=0.5;exitDx=0;exitDy=0;entryX=0;entryY=0.5;entryDx=0;entryDy=0;" edge="1" parent="75" source="54" target="61">
                    <mxGeometry as="geometry"/>
                </mxCell>
                <mxCell id="62" value="成本+固定费用合同&lt;br&gt;(CPFF)" style="rounded=1;whiteSpace=wrap;html=1;" vertex="1" parent="75">
                    <mxGeometry x="350" y="180" width="120" height="60" as="geometry"/>
                </mxCell>
                <mxCell id="67" style="edgeStyle=orthogonalEdgeStyle;html=1;exitX=1;exitY=0.5;exitDx=0;exitDy=0;entryX=0;entryY=0.5;entryDx=0;entryDy=0;" edge="1" parent="75" source="56" target="62">
                    <mxGeometry as="geometry"/>
                </mxCell>
                <mxCell id="63" value="成本+激励费用合同&lt;br&gt;(CPIF)" style="rounded=1;whiteSpace=wrap;html=1;" vertex="1" parent="75">
                    <mxGeometry x="350" y="270" width="120" height="60" as="geometry"/>
                </mxCell>
                <mxCell id="64" value="成本+奖励费用合同&lt;br&gt;(CPAF)" style="rounded=1;whiteSpace=wrap;html=1;" vertex="1" parent="75">
                    <mxGeometry x="350" y="359" width="120" height="60" as="geometry"/>
                </mxCell>
                <mxCell id="68" style="edgeStyle=orthogonalEdgeStyle;html=1;exitX=1;exitY=0.5;exitDx=0;exitDy=0;entryX=0;entryY=0.5;entryDx=0;entryDy=0;" edge="1" parent="75" source="56" target="63">
                    <mxGeometry as="geometry"/>
                </mxCell>
                <mxCell id="69" style="edgeStyle=orthogonalEdgeStyle;html=1;exitX=1;exitY=0.5;exitDx=0;exitDy=0;entryX=0;entryY=0.5;entryDx=0;entryDy=0;" edge="1" parent="75" source="56" target="64">
                    <mxGeometry as="geometry"/>
                </mxCell>
                <mxCell id="73" value="工料" style="rounded=1;whiteSpace=wrap;html=1;" vertex="1" parent="75">
                    <mxGeometry x="170" y="450" width="120" height="60" as="geometry"/>
                </mxCell>
                <mxCell id="74" style="edgeStyle=orthogonalEdgeStyle;html=1;exitX=1;exitY=0.5;exitDx=0;exitDy=0;entryX=0;entryY=0.5;entryDx=0;entryDy=0;" edge="1" parent="75" source="53" target="73">
                    <mxGeometry relative="1" as="geometry"/>
                </mxCell>
                <mxCell id="100" value="" style="group" vertex="1" connectable="0" parent="1">
                    <mxGeometry x="1520" y="610" width="376" height="670" as="geometry"/>
                </mxCell>
                <mxCell id="79" value="成本补偿合同" style="rounded=1;whiteSpace=wrap;html=1;sketch=0;" vertex="1" parent="100">
                    <mxGeometry y="50" width="120" height="60" as="geometry"/>
                </mxCell>
                <mxCell id="81" value="如果工作范围尚不清楚" style="shape=process;whiteSpace=wrap;html=1;backgroundOutline=1;sketch=0;" vertex="1" parent="100">
                    <mxGeometry x="176" width="200" height="60" as="geometry"/>
                </mxCell>
                <mxCell id="83" style="edgeStyle=orthogonalEdgeStyle;html=1;exitX=1;exitY=0.5;exitDx=0;exitDy=0;entryX=0;entryY=0.5;entryDx=0;entryDy=0;" edge="1" parent="100" source="79" target="81">
                    <mxGeometry relative="1" as="geometry"/>
                </mxCell>
                <mxCell id="82" value="买方承担成本风险" style="shape=process;whiteSpace=wrap;html=1;backgroundOutline=1;sketch=0;" vertex="1" parent="100">
                    <mxGeometry x="176" y="100" width="200" height="60" as="geometry"/>
                </mxCell>
                <mxCell id="84" style="edgeStyle=orthogonalEdgeStyle;html=1;exitX=1;exitY=0.5;exitDx=0;exitDy=0;entryX=0;entryY=0.5;entryDx=0;entryDy=0;" edge="1" parent="100" source="79" target="82">
                    <mxGeometry relative="1" as="geometry"/>
                </mxCell>
                <mxCell id="87" value="总价合同" style="rounded=1;whiteSpace=wrap;html=1;sketch=0;" vertex="1" parent="100">
                    <mxGeometry y="250" width="120" height="60" as="geometry"/>
                </mxCell>
                <mxCell id="88" value="如果工作范围很明确，已具备详细的细节" style="shape=process;whiteSpace=wrap;html=1;backgroundOutline=1;sketch=0;align=left;" vertex="1" parent="100">
                    <mxGeometry x="176" y="200" width="200" height="60" as="geometry"/>
                </mxCell>
                <mxCell id="90" style="edgeStyle=orthogonalEdgeStyle;html=1;exitX=1;exitY=0.5;exitDx=0;exitDy=0;entryX=0;entryY=0.5;entryDx=0;entryDy=0;" edge="1" parent="100" source="87" target="88">
                    <mxGeometry relative="1" as="geometry"/>
                </mxCell>
                <mxCell id="89" value="卖方承担成本风险" style="shape=process;whiteSpace=wrap;html=1;backgroundOutline=1;sketch=0;" vertex="1" parent="100">
                    <mxGeometry x="176" y="300" width="200" height="60" as="geometry"/>
                </mxCell>
                <mxCell id="91" style="edgeStyle=orthogonalEdgeStyle;html=1;exitX=1;exitY=0.5;exitDx=0;exitDy=0;entryX=0;entryY=0.5;entryDx=0;entryDy=0;" edge="1" parent="100" source="87" target="89">
                    <mxGeometry relative="1" as="geometry"/>
                </mxCell>
                <mxCell id="92" value="工料合同" style="rounded=1;whiteSpace=wrap;html=1;sketch=0;" vertex="1" parent="100">
                    <mxGeometry y="450" width="120" height="60" as="geometry"/>
                </mxCell>
                <mxCell id="93" value="范围不清楚，工作不复杂，需要快速签订" style="shape=process;whiteSpace=wrap;html=1;backgroundOutline=1;sketch=0;align=left;" vertex="1" parent="100">
                    <mxGeometry x="176" y="400" width="200" height="60" as="geometry"/>
                </mxCell>
                <mxCell id="95" style="edgeStyle=orthogonalEdgeStyle;html=1;exitX=1;exitY=0.5;exitDx=0;exitDy=0;entryX=0;entryY=0.5;entryDx=0;entryDy=0;" edge="1" parent="100" source="92" target="93">
                    <mxGeometry relative="1" as="geometry"/>
                </mxCell>
                <mxCell id="94" value="买卖双方分担风险" style="shape=process;whiteSpace=wrap;html=1;backgroundOutline=1;sketch=0;" vertex="1" parent="100">
                    <mxGeometry x="176" y="500" width="200" height="60" as="geometry"/>
                </mxCell>
                <mxCell id="96" style="edgeStyle=orthogonalEdgeStyle;html=1;exitX=1;exitY=0.5;exitDx=0;exitDy=0;entryX=0;entryY=0.5;entryDx=0;entryDy=0;" edge="1" parent="100" source="92" target="94">
                    <mxGeometry relative="1" as="geometry"/>
                </mxCell>
                <mxCell id="97" value="单边合同" style="rounded=1;whiteSpace=wrap;html=1;sketch=0;" vertex="1" parent="100">
                    <mxGeometry y="610" width="120" height="60" as="geometry"/>
                </mxCell>
                <mxCell id="98" value="如果购买的是标准产品，并且数量不大" style="shape=process;whiteSpace=wrap;html=1;backgroundOutline=1;sketch=0;align=left;" vertex="1" parent="100">
                    <mxGeometry x="176" y="610" width="200" height="60" as="geometry"/>
                </mxCell>
                <mxCell id="99" style="edgeStyle=orthogonalEdgeStyle;html=1;exitX=1;exitY=0.5;exitDx=0;exitDy=0;entryX=0;entryY=0.5;entryDx=0;entryDy=0;" edge="1" parent="100" source="97" target="98">
                    <mxGeometry relative="1" as="geometry"/>
                </mxCell>
                <mxCell id="104" value="" style="group" vertex="1" connectable="0" parent="1">
                    <mxGeometry x="90" y="540" width="420" height="460" as="geometry"/>
                </mxCell>
                <mxCell id="19" value="监控项目工作" style="rounded=0;whiteSpace=wrap;html=1;" parent="104" vertex="1">
                    <mxGeometry y="200" width="120" height="60" as="geometry"/>
                </mxCell>
                <mxCell id="20" value="实施整体变更控制" style="rounded=0;whiteSpace=wrap;html=1;" parent="104" vertex="1">
                    <mxGeometry x="300" width="120" height="60" as="geometry"/>
                </mxCell>
                <mxCell id="24" style="edgeStyle=orthogonalEdgeStyle;html=1;exitX=1;exitY=0.5;exitDx=0;exitDy=0;entryX=0;entryY=0.5;entryDx=0;entryDy=0;" parent="104" source="19" target="20" edge="1">
                    <mxGeometry x="-10" as="geometry"/>
                </mxCell>
                <mxCell id="21" value="管理项目团队" style="rounded=0;whiteSpace=wrap;html=1;" parent="104" vertex="1">
                    <mxGeometry x="300" y="100" width="120" height="60" as="geometry"/>
                </mxCell>
                <mxCell id="25" style="edgeStyle=orthogonalEdgeStyle;html=1;exitX=1;exitY=0.5;exitDx=0;exitDy=0;entryX=0;entryY=0.5;entryDx=0;entryDy=0;" parent="104" source="19" target="21" edge="1">
                    <mxGeometry x="-10" as="geometry"/>
                </mxCell>
                <mxCell id="22" value="控制风险" style="rounded=0;whiteSpace=wrap;html=1;" parent="104" vertex="1">
                    <mxGeometry x="300" y="300" width="120" height="60" as="geometry"/>
                </mxCell>
                <mxCell id="26" style="edgeStyle=orthogonalEdgeStyle;html=1;exitX=1;exitY=0.5;exitDx=0;exitDy=0;entryX=0;entryY=0.5;entryDx=0;entryDy=0;" parent="104" source="19" target="22" edge="1">
                    <mxGeometry x="-10" as="geometry"/>
                </mxCell>
                <mxCell id="23" value="控制采购" style="rounded=0;whiteSpace=wrap;html=1;" parent="104" vertex="1">
                    <mxGeometry x="300" y="400" width="120" height="60" as="geometry"/>
                </mxCell>
                <mxCell id="27" style="edgeStyle=orthogonalEdgeStyle;html=1;exitX=1;exitY=0.5;exitDx=0;exitDy=0;entryX=0;entryY=0.5;entryDx=0;entryDy=0;" parent="104" source="19" target="23" edge="1">
                    <mxGeometry x="-10" as="geometry"/>
                </mxCell>
                <mxCell id="28" value="工作绩效报告" style="edgeLabel;html=1;align=center;verticalAlign=middle;resizable=0;points=[];" parent="27" vertex="1" connectable="0">
                    <mxGeometry x="-0.7429" relative="1" as="geometry">
                        <mxPoint as="offset"/>
                    </mxGeometry>
                </mxCell>
                <mxCell id="102" value="管理沟通" style="rounded=0;whiteSpace=wrap;html=1;" vertex="1" parent="104">
                    <mxGeometry x="300" y="200" width="120" height="60" as="geometry"/>
                </mxCell>
                <mxCell id="103" style="edgeStyle=orthogonalEdgeStyle;html=1;exitX=1;exitY=0.5;exitDx=0;exitDy=0;entryX=0;entryY=0.5;entryDx=0;entryDy=0;" edge="1" parent="104" source="19" target="102">
                    <mxGeometry relative="1" as="geometry"/>
                </mxCell>
            </root>
        </mxGraphModel>
    </diagram>
</mxfile>
